<mxfile host="app.diagrams.net" modified="2023-04-01T17:05:55.174Z" agent="Mozilla/5.0 (Windows NT 10.0; Win64; x64) AppleWebKit/537.36 (KHTML, like Gecko) Chrome/111.0.0.0 Safari/537.36" etag="3BHWT-2vm1svdSik80RA" version="21.1.1" type="device">
  <diagram name="Page-1" id="2cc2dc42-3aac-f2a9-1cec-7a8b7cbee084">
    <mxGraphModel dx="1588" dy="954" grid="1" gridSize="10" guides="1" tooltips="1" connect="1" arrows="1" fold="1" page="1" pageScale="1" pageWidth="1100" pageHeight="850" background="#ffffff" math="0" shadow="0">
      <root>
        <mxCell id="0" />
        <mxCell id="1" parent="0" />
        <mxCell id="7026571954dc6520-1" value="" style="strokeWidth=1;shadow=0;dashed=0;align=center;html=1;shape=mxgraph.mockup.containers.browserWindow;rSize=0;strokeColor=#666666;mainText=,;recursiveResize=0;rounded=0;labelBackgroundColor=none;fontFamily=Verdana;fontSize=12" parent="1" vertex="1">
          <mxGeometry x="30" y="20" width="1050" height="1700" as="geometry" />
        </mxCell>
        <mxCell id="7026571954dc6520-2" value="Page 1" style="strokeWidth=1;shadow=0;dashed=0;align=center;html=1;shape=mxgraph.mockup.containers.anchor;fontSize=17;fontColor=#666666;align=left;" parent="7026571954dc6520-1" vertex="1">
          <mxGeometry x="60" y="12" width="110" height="26" as="geometry" />
        </mxCell>
        <mxCell id="7026571954dc6520-3" value="https://www.wÃ¼stenzoo.ch/tiere.html" style="strokeWidth=1;shadow=0;dashed=0;align=center;html=1;shape=mxgraph.mockup.containers.anchor;rSize=0;fontSize=17;fontColor=#666666;align=left;" parent="7026571954dc6520-1" vertex="1">
          <mxGeometry x="130" y="60" width="250" height="26" as="geometry" />
        </mxCell>
        <mxCell id="7026571954dc6520-4" value="&lt;font style=&quot;font-size: 37px;&quot;&gt;Unsere Tiere:&lt;/font&gt;" style="text;html=1;points=[];align=left;verticalAlign=top;spacingTop=-4;fontSize=30;fontFamily=Verdana" parent="7026571954dc6520-1" vertex="1">
          <mxGeometry x="30" y="220" width="390" height="90" as="geometry" />
        </mxCell>
        <mxCell id="7026571954dc6520-15" value="" style="verticalLabelPosition=bottom;shadow=0;dashed=0;align=center;html=1;verticalAlign=top;strokeWidth=1;shape=mxgraph.mockup.markup.line;strokeColor=#999999;rounded=0;labelBackgroundColor=none;fillColor=#ffffff;fontFamily=Verdana;fontSize=12;fontColor=#000000;" parent="7026571954dc6520-1" vertex="1">
          <mxGeometry y="310" width="1050" height="20" as="geometry" />
        </mxCell>
        <mxCell id="7026571954dc6520-21" value="" style="verticalLabelPosition=bottom;shadow=0;dashed=0;align=center;html=1;verticalAlign=top;strokeWidth=1;shape=mxgraph.mockup.markup.line;strokeColor=#999999;rounded=0;labelBackgroundColor=none;fillColor=#ffffff;fontFamily=Verdana;fontSize=12;fontColor=#000000;" parent="7026571954dc6520-1" vertex="1">
          <mxGeometry y="580" width="1050" height="20" as="geometry" />
        </mxCell>
        <mxCell id="gAkNegjKsEfV6vPwp3o9-78" value="&lt;font style=&quot;font-size: 25px;&quot;&gt;Name von Tier&lt;/font&gt;" style="text;html=1;points=[];align=left;verticalAlign=top;spacingTop=-4;fontSize=15;fontFamily=Verdana" parent="7026571954dc6520-1" vertex="1">
          <mxGeometry x="265" y="350" width="170" height="30" as="geometry" />
        </mxCell>
        <mxCell id="gAkNegjKsEfV6vPwp3o9-79" value="" style="verticalLabelPosition=bottom;shadow=0;dashed=0;align=center;html=1;verticalAlign=top;strokeWidth=1;shape=mxgraph.mockup.graphics.simpleIcon;strokeColor=#999999;fillColor=#ffffff;rounded=0;labelBackgroundColor=none;fontFamily=Verdana;fontSize=12;fontColor=#000000;" parent="7026571954dc6520-1" vertex="1">
          <mxGeometry x="15" y="350" width="200" height="200" as="geometry" />
        </mxCell>
        <mxCell id="gAkNegjKsEfV6vPwp3o9-81" value="Text zu tier1Text zu tier1Text zu tier1Text zu tier1Text zu tier1Text zu tier1Text zu tier1Text zu tier1Text zu tier1Text zu tier1Text zu tier1Text zu tier1Text zu tier1Text zu tier1Text zu tier1Text zu tier1Text zu tier1Text zu tier1Text zu tier1Text zu tier1Text zu tier1Text zu tier1Text zu tier1Text zu tier1Text zu tier1Text zu tier1Text zu tier1Text zu tier1Text zu tier1Text zu tier1Text zu tier1Text zu tier1Text zu tier1Text zu tier1Text zu tier1Text zu tier1Text zu tier1Text zu tier1Text zu tier1Text zu tier1Text zu tier1Text zu tier1Text zu tier1Text zu tier1Text zu tier1Text zu tier1Text zu tier1Text zu tier1Text zu tier1Text zu tier1Text zu tier1Text zu tier1Text zu tier1Text zu tier1Text zu tier1Text zu tier1Text zu tier1Text zu tier1Text zu tier1Text zu tier1Text zu tier1Text zu tier1Text zu tier1Text zu tier1Text zu tier1Text zu tier1Text zu tier1Text zu tier1Text zu tier1Text zu tier1Text zu tier1Text zu tier1Text zu tier1Text zu tier1Text zu tier1Text zu tier1Text zu tier1Text zu tier1Text zu tier1Text zu tier1Text zu tier1Text zu tier1Text zu tier1Text zu tier1Text zu tier1Text zu tier1Text zu tier1Text zu tier1Text zu tier1Text zu tier1Text zu tier1Text zu tier1Text zu tier1Text zu tier1Text zu tier1Text zu tier1Text zu tier1Text zu tier1Text zu tier1Text zu tier1Text zu tier1Text zu tier1Text zu tier1Text zu tier1Text zu tier1Text zu tier1Text zu tier1Text zu tier1Text zu tier1Text zu tier1Text zu tier1" style="text;spacingTop=-5;whiteSpace=wrap;html=1;align=left;fontSize=12;fontFamily=Helvetica;fillColor=none;strokeColor=none;rounded=0;shadow=1;labelBackgroundColor=none;" parent="7026571954dc6520-1" vertex="1">
          <mxGeometry x="510" y="350" width="520" height="210" as="geometry" />
        </mxCell>
        <mxCell id="7026571954dc6520-6" value="&lt;font style=&quot;font-size: 25px;&quot;&gt;Name von Tier&lt;/font&gt;" style="text;html=1;points=[];align=left;verticalAlign=top;spacingTop=-4;fontSize=15;fontFamily=Verdana" parent="7026571954dc6520-1" vertex="1">
          <mxGeometry x="265" y="655" width="170" height="30" as="geometry" />
        </mxCell>
        <mxCell id="gAkNegjKsEfV6vPwp3o9-77" value="" style="verticalLabelPosition=bottom;shadow=0;dashed=0;align=center;html=1;verticalAlign=top;strokeWidth=1;shape=mxgraph.mockup.graphics.simpleIcon;strokeColor=#999999;fillColor=#ffffff;rounded=0;labelBackgroundColor=none;fontFamily=Verdana;fontSize=12;fontColor=#000000;" parent="7026571954dc6520-1" vertex="1">
          <mxGeometry x="15" y="655" width="200" height="200" as="geometry" />
        </mxCell>
        <mxCell id="gAkNegjKsEfV6vPwp3o9-80" value="Text zu tier2Text zu tier2Text zu tier2Text zu tier2Text zu tier2Text zu tier2Text zu tier2Text zu tier2Text zu tier2Text zu tier2Text zu tier2Text zu tier2Text zu tier2Text zu tier2Text zu tier2Text zu tier2Text zu tier2Text zu tier2Text zu tier2Text zu tier2Text zu tier2Text zu tier2Text zu tier2Text zu tier2Text zu tier2Text zu tier2Text zu tier2Text zu tier2Text zu tier2Text zu tier2Text zu tier2Text zu tier2Text zu tier2Text zu tier2Text zu tier2Text zu tier2Text zu tier2Text zu tier2Text zu tier2Text zu tier2Text zu tier2Text zu tier2Text zu tier2Text zu tier2Text zu tier2Text zu tier2Text zu tier2Text zu tier2Text zu tier2Text zu tier2Text zu tier2Text zu tier2Text zu tier2Text zu tier2Text zu tier2Text zu tier2Text zu tier2Text zu tier2Text zu tier2Text zu tier2Text zu tier2Text zu tier2Text zu tier2Text zu tier2Text zu tier2Text zu tier2Text zu tier2Text zu tier2Text zu tier2Text zu tier2Text zu tier2Text zu tier2Text zu tier2Text zu tier2Text zu tier2Text zu tier2Text zu tier2Text zu tier2Text zu tier2Text zu tier2Text zu tier2Text zu tier2Text zu tier2Text zu tier2Text zu tier2Text zu tier2Text zu tier2Text zu tier2Text zu tier2Text zu tier2Text zu tier2Text zu tier2Text zu tier2Text zu tier2Text zu tier2Text zu tier2Text zu tier2Text zu tier2Text zu tier2Text zu tier2Text zu tier2Text zu tier2Text zu tier2Text zu tier2Text zu tier2Text zu tier2Text zu tier2Text zu tier2Text zu tier2Text zu tier2Text zu tier2" style="text;spacingTop=-5;whiteSpace=wrap;html=1;align=left;fontSize=12;fontFamily=Helvetica;fillColor=none;strokeColor=none;rounded=0;shadow=1;labelBackgroundColor=none;" parent="7026571954dc6520-1" vertex="1">
          <mxGeometry x="505" y="640" width="520" height="210" as="geometry" />
        </mxCell>
        <mxCell id="gAkNegjKsEfV6vPwp3o9-82" value="&lt;font style=&quot;font-size: 25px;&quot;&gt;Name von Tier&lt;/font&gt;" style="text;html=1;points=[];align=left;verticalAlign=top;spacingTop=-4;fontSize=15;fontFamily=Verdana" parent="7026571954dc6520-1" vertex="1">
          <mxGeometry x="270" y="910" width="170" height="30" as="geometry" />
        </mxCell>
        <mxCell id="gAkNegjKsEfV6vPwp3o9-84" value="" style="verticalLabelPosition=bottom;shadow=0;dashed=0;align=center;html=1;verticalAlign=top;strokeWidth=1;shape=mxgraph.mockup.graphics.simpleIcon;strokeColor=#999999;fillColor=#ffffff;rounded=0;labelBackgroundColor=none;fontFamily=Verdana;fontSize=12;fontColor=#000000;" parent="7026571954dc6520-1" vertex="1">
          <mxGeometry x="15" y="900" width="200" height="200" as="geometry" />
        </mxCell>
        <mxCell id="gAkNegjKsEfV6vPwp3o9-85" value="Text zu tier3Text zu tier3Text zu tier3Text zu tier3Text zu tier3Text zu tier3Text zu tier3Text zu tier3Text zu tier3Text zu tier3Text zu tier3Text zu tier3Text zu tier3Text zu tier3Text zu tier3Text zu tier3Text zu tier3Text zu tier3Text zu tier3Text zu tier3Text zu tier3Text zu tier3Text zu tier3Text zu tier3Text zu tier3Text zu tier3Text zu tier3Text zu tier3Text zu tier3Text zu tier3Text zu tier3Text zu tier3Text zu tier3Text zu tier3Text zu tier3Text zu tier3Text zu tier3Text zu tier3Text zu tier3Text zu tier3Text zu tier3Text zu tier3Text zu tier3Text zu tier3Text zu tier3Text zu tier3Text zu tier3Text zu tier3Text zu tier3Text zu tier3Text zu tier3Text zu tier3Text zu tier3Text zu tier3Text zu tier3Text zu tier3Text zu tier3Text zu tier3Text zu tier3Text zu tier3Text zu tier3Text zu tier3Text zu tier3Text zu tier3Text zu tier3Text zu tier3Text zu tier3Text zu tier3Text zu tier3Text zu tier3Text zu tier3Text zu tier3Text zu tier3Text zu tier3Text zu tier3Text zu tier3Text zu tier3Text zu tier3Text zu tier3Text zu tier3Text zu tier3Text zu tier3Text zu tier3Text zu tier3Text zu tier3Text zu tier3Text zu tier3Text zu tier3Text zu tier3Text zu tier3Text zu tier3Text zu tier3Text zu tier3Text zu tier3Text zu tier3Text zu tier3Text zu tier3Text zu tier3Text zu tier3Text zu tier3Text zu tier3Text zu tier3Text zu tier3Text zu tier3Text zu tier3Text zu tier3Text zu tier3Text zu tier3Text zu tier3Text zu tier3Text zu tier3" style="text;spacingTop=-5;whiteSpace=wrap;html=1;align=left;fontSize=12;fontFamily=Helvetica;fillColor=none;strokeColor=none;rounded=0;shadow=1;labelBackgroundColor=none;" parent="7026571954dc6520-1" vertex="1">
          <mxGeometry x="505" y="900" width="520" height="210" as="geometry" />
        </mxCell>
        <mxCell id="gAkNegjKsEfV6vPwp3o9-86" value="&lt;font style=&quot;font-size: 25px;&quot;&gt;Name von Tier&lt;/font&gt;" style="text;html=1;points=[];align=left;verticalAlign=top;spacingTop=-4;fontSize=15;fontFamily=Verdana" parent="7026571954dc6520-1" vertex="1">
          <mxGeometry x="270" y="1155" width="170" height="30" as="geometry" />
        </mxCell>
        <mxCell id="gAkNegjKsEfV6vPwp3o9-88" value="" style="verticalLabelPosition=bottom;shadow=0;dashed=0;align=center;html=1;verticalAlign=top;strokeWidth=1;shape=mxgraph.mockup.graphics.simpleIcon;strokeColor=#999999;fillColor=#ffffff;rounded=0;labelBackgroundColor=none;fontFamily=Verdana;fontSize=12;fontColor=#000000;" parent="7026571954dc6520-1" vertex="1">
          <mxGeometry x="20" y="1155" width="200" height="200" as="geometry" />
        </mxCell>
        <mxCell id="gAkNegjKsEfV6vPwp3o9-89" value="Text zu tier4Text zu tier4Text zu tier4Text zu tier4Text zu tier4Text zu tier4Text zu tier4Text zu tier4Text zu tier4Text zu tier4Text zu tier4Text zu tier4Text zu tier4Text zu tier4Text zu tier4Text zu tier4Text zu tier4Text zu tier4Text zu tier4Text zu tier4Text zu tier4Text zu tier4Text zu tier4Text zu tier4Text zu tier4Text zu tier4Text zu tier4Text zu tier4Text zu tier4Text zu tier4Text zu tier4Text zu tier4Text zu tier4Text zu tier4Text zu tier4Text zu tier4Text zu tier4Text zu tier4Text zu tier4Text zu tier4Text zu tier4Text zu tier4Text zu tier4Text zu tier4Text zu tier4Text zu tier4Text zu tier4Text zu tier4Text zu tier4Text zu tier4Text zu tier4Text zu tier4Text zu tier4Text zu tier4Text zu tier4Text zu tier4Text zu tier4Text zu tier4Text zu tier4Text zu tier4Text zu tier4Text zu tier4Text zu tier4Text zu tier4Text zu tier4Text zu tier4Text zu tier4Text zu tier4Text zu tier4Text zu tier4Text zu tier4Text zu tier4Text zu tier4Text zu tier4Text zu tier4Text zu tier4Text zu tier4Text zu tier4Text zu tier4Text zu tier4Text zu tier4Text zu tier4Text zu tier4Text zu tier4Text zu tier4Text zu tier4Text zu tier4Text zu tier4Text zu tier4Text zu tier4Text zu tier4Text zu tier4Text zu tier4Text zu tier4Text zu tier4Text zu tier4Text zu tier4Text zu tier4Text zu tier4Text zu tier4Text zu tier4Text zu tier4Text zu tier4Text zu tier4Text zu tier4Text zu tier4Text zu tier4Text zu tier4Text zu tier4Text zu tier4Text zu tier4" style="text;spacingTop=-5;whiteSpace=wrap;html=1;align=left;fontSize=12;fontFamily=Helvetica;fillColor=none;strokeColor=none;rounded=0;shadow=1;labelBackgroundColor=none;" parent="7026571954dc6520-1" vertex="1">
          <mxGeometry x="510" y="1150" width="520" height="210" as="geometry" />
        </mxCell>
        <mxCell id="gAkNegjKsEfV6vPwp3o9-90" value="&lt;font style=&quot;font-size: 25px;&quot;&gt;Name von Tier&lt;/font&gt;" style="text;html=1;points=[];align=left;verticalAlign=top;spacingTop=-4;fontSize=15;fontFamily=Verdana" parent="7026571954dc6520-1" vertex="1">
          <mxGeometry x="280" y="1420" width="170" height="30" as="geometry" />
        </mxCell>
        <mxCell id="gAkNegjKsEfV6vPwp3o9-91" value="" style="verticalLabelPosition=bottom;shadow=0;dashed=0;align=center;html=1;verticalAlign=top;strokeWidth=1;shape=mxgraph.mockup.graphics.simpleIcon;strokeColor=#999999;fillColor=#ffffff;rounded=0;labelBackgroundColor=none;fontFamily=Verdana;fontSize=12;fontColor=#000000;" parent="7026571954dc6520-1" vertex="1">
          <mxGeometry x="20" y="1420" width="200" height="200" as="geometry" />
        </mxCell>
        <mxCell id="gAkNegjKsEfV6vPwp3o9-92" value="Text zu tier5Text zu tier5Text zu tier5Text zu tier5Text zu tier5Text zu tier5Text zu tier5Text zu tier5Text zu tier5Text zu tier5Text zu tier5Text zu tier5Text zu tier5Text zu tier5Text zu tier5Text zu tier5Text zu tier5Text zu tier5Text zu tier5Text zu tier5Text zu tier5Text zu tier5Text zu tier5Text zu tier5Text zu tier5Text zu tier5Text zu tier5Text zu tier5Text zu tier5Text zu tier5Text zu tier5Text zu tier5Text zu tier5Text zu tier5Text zu tier5Text zu tier5Text zu tier5Text zu tier5Text zu tier5Text zu tier5Text zu tier5Text zu tier5Text zu tier5Text zu tier5Text zu tier5Text zu tier5Text zu tier5Text zu tier5Text zu tier5Text zu tier5Text zu tier5Text zu tier5Text zu tier5Text zu tier5Text zu tier5Text zu tier5Text zu tier5Text zu tier5Text zu tier5Text zu tier5Text zu tier5Text zu tier5Text zu tier5Text zu tier5Text zu tier5Text zu tier5Text zu tier5Text zu tier5Text zu tier5Text zu tier5Text zu tier5Text zu tier5Text zu tier5Text zu tier5Text zu tier5Text zu tier5Text zu tier5Text zu tier5Text zu tier5Text zu tier5Text zu tier5Text zu tier5Text zu tier5Text zu tier5Text zu tier5Text zu tier5Text zu tier5Text zu tier5Text zu tier5Text zu tier5Text zu tier5Text zu tier5Text zu tier5Text zu tier5Text zu tier5Text zu tier5Text zu tier5Text zu tier5Text zu tier5Text zu tier5Text zu tier5Text zu tier5Text zu tier5Text zu tier5Text zu tier5Text zu tier5Text zu tier5Text zu tier5Text zu tier5Text zu tier5Text zu tier5" style="text;spacingTop=-5;whiteSpace=wrap;html=1;align=left;fontSize=12;fontFamily=Helvetica;fillColor=none;strokeColor=none;rounded=0;shadow=1;labelBackgroundColor=none;" parent="7026571954dc6520-1" vertex="1">
          <mxGeometry x="520" y="1420" width="520" height="210" as="geometry" />
        </mxCell>
        <mxCell id="gAkNegjKsEfV6vPwp3o9-93" value="" style="verticalLabelPosition=bottom;shadow=0;dashed=0;align=center;html=1;verticalAlign=top;strokeWidth=1;shape=mxgraph.mockup.markup.line;strokeColor=#999999;rounded=0;labelBackgroundColor=none;fillColor=#ffffff;fontFamily=Verdana;fontSize=12;fontColor=#000000;" parent="7026571954dc6520-1" vertex="1">
          <mxGeometry y="870" width="1050" height="20" as="geometry" />
        </mxCell>
        <mxCell id="gAkNegjKsEfV6vPwp3o9-94" value="" style="verticalLabelPosition=bottom;shadow=0;dashed=0;align=center;html=1;verticalAlign=top;strokeWidth=1;shape=mxgraph.mockup.markup.line;strokeColor=#999999;rounded=0;labelBackgroundColor=none;fillColor=#ffffff;fontFamily=Verdana;fontSize=12;fontColor=#000000;" parent="7026571954dc6520-1" vertex="1">
          <mxGeometry y="1110" width="1050" height="20" as="geometry" />
        </mxCell>
        <mxCell id="gAkNegjKsEfV6vPwp3o9-96" value="" style="verticalLabelPosition=bottom;shadow=0;dashed=0;align=center;html=1;verticalAlign=top;strokeWidth=1;shape=mxgraph.mockup.markup.line;strokeColor=#999999;rounded=0;labelBackgroundColor=none;fillColor=#ffffff;fontFamily=Verdana;fontSize=12;fontColor=#000000;" parent="7026571954dc6520-1" vertex="1">
          <mxGeometry y="1370" width="1050" height="20" as="geometry" />
        </mxCell>
        <mxCell id="gAkNegjKsEfV6vPwp3o9-110" value="" style="rounded=0;whiteSpace=wrap;html=1;fillColor=#000000;" parent="7026571954dc6520-1" vertex="1">
          <mxGeometry y="110" width="1050" height="100" as="geometry" />
        </mxCell>
        <mxCell id="gAkNegjKsEfV6vPwp3o9-115" value="&lt;font style=&quot;font-size: 30px;&quot; color=&quot;#ffffff&quot;&gt;Startseite&lt;/font&gt;" style="text;html=1;strokeColor=none;fillColor=none;align=center;verticalAlign=middle;whiteSpace=wrap;rounded=0;" parent="7026571954dc6520-1" vertex="1">
          <mxGeometry x="5" y="127.5" width="185" height="70" as="geometry" />
        </mxCell>
        <mxCell id="gAkNegjKsEfV6vPwp3o9-116" value="&lt;font style=&quot;font-size: 30px;&quot; color=&quot;#ffffff&quot;&gt;Tiere&lt;/font&gt;" style="text;html=1;strokeColor=none;fillColor=none;align=center;verticalAlign=middle;whiteSpace=wrap;rounded=0;" parent="7026571954dc6520-1" vertex="1">
          <mxGeometry x="205" y="127.5" width="185" height="70" as="geometry" />
        </mxCell>
        <mxCell id="gAkNegjKsEfV6vPwp3o9-117" value="&lt;font style=&quot;font-size: 30px;&quot; color=&quot;#ffffff&quot;&gt;Informationen&lt;/font&gt;" style="text;html=1;strokeColor=none;fillColor=none;align=center;verticalAlign=middle;whiteSpace=wrap;rounded=0;" parent="7026571954dc6520-1" vertex="1">
          <mxGeometry x="425" y="127.5" width="185" height="70" as="geometry" />
        </mxCell>
        <mxCell id="gAkNegjKsEfV6vPwp3o9-118" value="&lt;font color=&quot;#ffffff&quot;&gt;&lt;span style=&quot;font-size: 30px;&quot;&gt;Kontakt&lt;/span&gt;&lt;/font&gt;" style="text;html=1;strokeColor=none;fillColor=none;align=center;verticalAlign=middle;whiteSpace=wrap;rounded=0;" parent="7026571954dc6520-1" vertex="1">
          <mxGeometry x="845" y="122.5" width="185" height="75" as="geometry" />
        </mxCell>
        <mxCell id="gAkNegjKsEfV6vPwp3o9-20" value="" style="verticalLabelPosition=bottom;shadow=0;dashed=0;align=center;html=1;verticalAlign=top;strokeWidth=1;shape=mxgraph.mockup.graphics.simpleIcon;strokeColor=#999999;fillColor=#ffffff;rounded=0;labelBackgroundColor=none;fontFamily=Verdana;fontSize=12;fontColor=#000000;opacity=30;" parent="7026571954dc6520-1" vertex="1">
          <mxGeometry y="210" width="1050" height="1490" as="geometry" />
        </mxCell>
        <mxCell id="gAkNegjKsEfV6vPwp3o9-1" value="" style="strokeWidth=1;shadow=0;dashed=0;align=center;html=1;shape=mxgraph.mockup.containers.browserWindow;rSize=0;strokeColor=#666666;mainText=,;recursiveResize=0;rounded=0;labelBackgroundColor=none;fontFamily=Verdana;fontSize=12" parent="1" vertex="1">
          <mxGeometry x="1190" y="30" width="1070" height="840" as="geometry" />
        </mxCell>
        <mxCell id="gAkNegjKsEfV6vPwp3o9-2" value="Page 1" style="strokeWidth=1;shadow=0;dashed=0;align=center;html=1;shape=mxgraph.mockup.containers.anchor;fontSize=17;fontColor=#666666;align=left;" parent="gAkNegjKsEfV6vPwp3o9-1" vertex="1">
          <mxGeometry x="60" y="12" width="110" height="26" as="geometry" />
        </mxCell>
        <mxCell id="gAkNegjKsEfV6vPwp3o9-3" value="https://www.wÃ¼stenzoo.ch/kontakt.html" style="strokeWidth=1;shadow=0;dashed=0;align=center;html=1;shape=mxgraph.mockup.containers.anchor;rSize=0;fontSize=17;fontColor=#666666;align=left;" parent="gAkNegjKsEfV6vPwp3o9-1" vertex="1">
          <mxGeometry x="130" y="60" width="250" height="26" as="geometry" />
        </mxCell>
        <mxCell id="gAkNegjKsEfV6vPwp3o9-4" value="Kontakt:" style="text;html=1;points=[];align=left;verticalAlign=top;spacingTop=-4;fontSize=30;fontFamily=Verdana" parent="gAkNegjKsEfV6vPwp3o9-1" vertex="1">
          <mxGeometry x="30" y="250" width="340" height="50" as="geometry" />
        </mxCell>
        <mxCell id="gAkNegjKsEfV6vPwp3o9-13" value="" style="verticalLabelPosition=bottom;shadow=0;dashed=0;align=center;html=1;verticalAlign=top;strokeWidth=1;shape=mxgraph.mockup.markup.line;strokeColor=#999999;rounded=0;labelBackgroundColor=none;fillColor=#ffffff;fontFamily=Verdana;fontSize=12;fontColor=#000000;" parent="gAkNegjKsEfV6vPwp3o9-1" vertex="1">
          <mxGeometry y="330" width="1050" height="20" as="geometry" />
        </mxCell>
        <mxCell id="gAkNegjKsEfV6vPwp3o9-14" value="&lt;b&gt;&lt;font style=&quot;font-size: 18px;&quot;&gt;Mitarbeiter&lt;/font&gt;&lt;/b&gt;" style="text;html=1;points=[];align=left;verticalAlign=top;spacingTop=-4;fontSize=15;fontFamily=Verdana" parent="gAkNegjKsEfV6vPwp3o9-1" vertex="1">
          <mxGeometry x="420" y="360" width="170" height="30" as="geometry" />
        </mxCell>
        <mxCell id="gAkNegjKsEfV6vPwp3o9-15" value="&lt;font style=&quot;font-size: 18px;&quot;&gt;&lt;br&gt;StandortStandortStandortStandortStandort&lt;br style=&quot;border-color: var(--border-color);&quot;&gt;StandortStandortStandortStandortStandort&lt;br&gt;&lt;br&gt;InhaberdatenInhaberdatenInhaberdaten&lt;br&gt;InhaberdatenInhaberdatenInhaberdaten&lt;br&gt;&lt;/font&gt;" style="text;spacingTop=-5;whiteSpace=wrap;html=1;align=left;fontSize=12;fontFamily=Helvetica;fillColor=none;strokeColor=none;rounded=0;shadow=1;labelBackgroundColor=none;" parent="gAkNegjKsEfV6vPwp3o9-1" vertex="1">
          <mxGeometry x="330" y="200" width="390" height="170" as="geometry" />
        </mxCell>
        <mxCell id="gAkNegjKsEfV6vPwp3o9-123" value="&lt;font style=&quot;font-size: 16px;&quot;&gt;Mitarbeiter1 Name&lt;/font&gt;" style="text;html=1;points=[];align=left;verticalAlign=top;spacingTop=-4;fontSize=12;fontFamily=Verdana;whiteSpace=wrap;" parent="gAkNegjKsEfV6vPwp3o9-1" vertex="1">
          <mxGeometry x="420" y="410" width="240" height="40" as="geometry" />
        </mxCell>
        <mxCell id="gAkNegjKsEfV6vPwp3o9-125" value="&lt;font style=&quot;font-size: 16px;&quot;&gt;Mitarbeiter1 Name&lt;/font&gt;" style="text;html=1;points=[];align=left;verticalAlign=top;spacingTop=-4;fontSize=12;fontFamily=Verdana;whiteSpace=wrap;" parent="gAkNegjKsEfV6vPwp3o9-1" vertex="1">
          <mxGeometry x="40" y="410" width="240" height="40" as="geometry" />
        </mxCell>
        <mxCell id="gAkNegjKsEfV6vPwp3o9-126" value="&lt;font style=&quot;font-size: 16px;&quot;&gt;Mitarbeiter1 Name&lt;/font&gt;" style="text;html=1;points=[];align=left;verticalAlign=top;spacingTop=-4;fontSize=12;fontFamily=Verdana;whiteSpace=wrap;" parent="gAkNegjKsEfV6vPwp3o9-1" vertex="1">
          <mxGeometry x="790" y="410" width="240" height="40" as="geometry" />
        </mxCell>
        <mxCell id="gAkNegjKsEfV6vPwp3o9-127" value="" style="verticalLabelPosition=bottom;shadow=0;dashed=0;align=center;html=1;verticalAlign=top;strokeWidth=1;shape=mxgraph.mockup.graphics.simpleIcon;strokeColor=#999999;fillColor=#ffffff;rounded=0;labelBackgroundColor=none;fontFamily=Verdana;fontSize=12;fontColor=#000000;" parent="gAkNegjKsEfV6vPwp3o9-1" vertex="1">
          <mxGeometry x="40" y="480" width="150" height="160" as="geometry" />
        </mxCell>
        <mxCell id="gAkNegjKsEfV6vPwp3o9-128" value="" style="verticalLabelPosition=bottom;shadow=0;dashed=0;align=center;html=1;verticalAlign=top;strokeWidth=1;shape=mxgraph.mockup.graphics.simpleIcon;strokeColor=#999999;fillColor=#ffffff;rounded=0;labelBackgroundColor=none;fontFamily=Verdana;fontSize=12;fontColor=#000000;" parent="gAkNegjKsEfV6vPwp3o9-1" vertex="1">
          <mxGeometry x="420" y="480" width="150" height="160" as="geometry" />
        </mxCell>
        <mxCell id="gAkNegjKsEfV6vPwp3o9-129" value="" style="verticalLabelPosition=bottom;shadow=0;dashed=0;align=center;html=1;verticalAlign=top;strokeWidth=1;shape=mxgraph.mockup.graphics.simpleIcon;strokeColor=#999999;fillColor=#ffffff;rounded=0;labelBackgroundColor=none;fontFamily=Verdana;fontSize=12;fontColor=#000000;" parent="gAkNegjKsEfV6vPwp3o9-1" vertex="1">
          <mxGeometry x="790" y="490" width="150" height="160" as="geometry" />
        </mxCell>
        <mxCell id="NXgxYOmkb9f06gpOWi1V-1" value="Mitarbeiter1 DatenMitarbeiter1 DatenMitarbeiter1 DatenMitarbeiter1 DatenMitarbeiter1 DatenMitarbeiter1 DatenMitarbeiter1 DatenMitarbeiter1 DatenMitarbeiter1 DatenMitarbeiter1 DatenMitarbeiter1 DatenMitarbeiter1 DatenMitarbeiter1 DatenMitarbeiter1&amp;nbsp;" style="text;html=1;points=[];align=left;verticalAlign=top;spacingTop=-4;fontSize=12;fontFamily=Verdana;whiteSpace=wrap;" vertex="1" parent="gAkNegjKsEfV6vPwp3o9-1">
          <mxGeometry x="20" y="680" width="240" height="140" as="geometry" />
        </mxCell>
        <mxCell id="NXgxYOmkb9f06gpOWi1V-2" value="Mitarbeiter2 DatenMitarbeiter2 DatenMitarbeiter2 DatenMitarbeiter2 DatenMitarbeiter2 DatenMitarbeiter2 DatenMitarbeiter2 DatenMitarbeiter2 DatenMitarbeiter2 DatenMitarbeiter2 DatenMitarbeiter2 DatenMitarbeiter2 DatenMitarbeiter2 DatenMitarbeiter2&amp;nbsp;" style="text;html=1;points=[];align=left;verticalAlign=top;spacingTop=-4;fontSize=12;fontFamily=Verdana;whiteSpace=wrap;" vertex="1" parent="gAkNegjKsEfV6vPwp3o9-1">
          <mxGeometry x="390" y="680" width="240" height="40" as="geometry" />
        </mxCell>
        <mxCell id="NXgxYOmkb9f06gpOWi1V-3" value="Mitarbeiter3 DatenMitarbeiter3 DatenMitarbeiter3 DatenMitarbeiter3 DatenMitarbeiter3 DatenMitarbeiter3 DatenMitarbeiter3 DatenMitarbeiter3 DatenMitarbeiter3 DatenMitarbeiter3 DatenMitarbeiter3 DatenMitarbeiter3 DatenMitarbeiter3 DatenMitarbeiter3&amp;nbsp;" style="text;html=1;points=[];align=left;verticalAlign=top;spacingTop=-4;fontSize=12;fontFamily=Verdana;whiteSpace=wrap;" vertex="1" parent="gAkNegjKsEfV6vPwp3o9-1">
          <mxGeometry x="760" y="680" width="240" height="130" as="geometry" />
        </mxCell>
        <mxCell id="NXgxYOmkb9f06gpOWi1V-4" value="" style="rounded=0;whiteSpace=wrap;html=1;fillColor=#000000;" vertex="1" parent="gAkNegjKsEfV6vPwp3o9-1">
          <mxGeometry y="110" width="1070" height="100" as="geometry" />
        </mxCell>
        <mxCell id="NXgxYOmkb9f06gpOWi1V-7" value="&lt;font style=&quot;font-size: 30px;&quot; color=&quot;#ffffff&quot;&gt;Startseite&lt;/font&gt;" style="text;html=1;strokeColor=none;fillColor=none;align=center;verticalAlign=middle;whiteSpace=wrap;rounded=0;" vertex="1" parent="gAkNegjKsEfV6vPwp3o9-1">
          <mxGeometry x="12.5" y="127.5" width="185" height="70" as="geometry" />
        </mxCell>
        <mxCell id="NXgxYOmkb9f06gpOWi1V-8" value="&lt;font style=&quot;font-size: 30px;&quot; color=&quot;#ffffff&quot;&gt;Tiere&lt;/font&gt;" style="text;html=1;strokeColor=none;fillColor=none;align=center;verticalAlign=middle;whiteSpace=wrap;rounded=0;" vertex="1" parent="gAkNegjKsEfV6vPwp3o9-1">
          <mxGeometry x="212.5" y="127.5" width="185" height="70" as="geometry" />
        </mxCell>
        <mxCell id="NXgxYOmkb9f06gpOWi1V-9" value="&lt;font style=&quot;font-size: 30px;&quot; color=&quot;#ffffff&quot;&gt;Informationen&lt;/font&gt;" style="text;html=1;strokeColor=none;fillColor=none;align=center;verticalAlign=middle;whiteSpace=wrap;rounded=0;" vertex="1" parent="gAkNegjKsEfV6vPwp3o9-1">
          <mxGeometry x="432.5" y="127.5" width="185" height="70" as="geometry" />
        </mxCell>
        <mxCell id="NXgxYOmkb9f06gpOWi1V-10" value="&lt;font color=&quot;#ffffff&quot;&gt;&lt;span style=&quot;font-size: 30px;&quot;&gt;Kontakt&lt;/span&gt;&lt;/font&gt;" style="text;html=1;strokeColor=none;fillColor=none;align=center;verticalAlign=middle;whiteSpace=wrap;rounded=0;" vertex="1" parent="gAkNegjKsEfV6vPwp3o9-1">
          <mxGeometry x="852.5" y="122.5" width="185" height="75" as="geometry" />
        </mxCell>
        <mxCell id="gAkNegjKsEfV6vPwp3o9-26" value="" style="strokeWidth=1;shadow=0;dashed=0;align=center;html=1;shape=mxgraph.mockup.containers.browserWindow;rSize=0;strokeColor=#666666;mainText=,;recursiveResize=0;rounded=0;labelBackgroundColor=none;fontFamily=Verdana;fontSize=12" parent="1" vertex="1">
          <mxGeometry x="25" y="1800" width="1050" height="820" as="geometry" />
        </mxCell>
        <mxCell id="gAkNegjKsEfV6vPwp3o9-27" value="wÃ¼stenzoo" style="strokeWidth=1;shadow=0;dashed=0;align=center;html=1;shape=mxgraph.mockup.containers.anchor;fontSize=17;fontColor=#666666;align=left;" parent="gAkNegjKsEfV6vPwp3o9-26" vertex="1">
          <mxGeometry x="60" y="12" width="110" height="26" as="geometry" />
        </mxCell>
        <mxCell id="gAkNegjKsEfV6vPwp3o9-28" value="https://www.wÃ¼stenzoo.ch" style="strokeWidth=1;shadow=0;dashed=0;align=center;html=1;shape=mxgraph.mockup.containers.anchor;rSize=0;fontSize=17;fontColor=#666666;align=left;" parent="gAkNegjKsEfV6vPwp3o9-26" vertex="1">
          <mxGeometry x="130" y="60" width="250" height="26" as="geometry" />
        </mxCell>
        <mxCell id="gAkNegjKsEfV6vPwp3o9-30" value="&lt;font style=&quot;font-size: 23px;&quot;&gt;diese tiere haben wir&lt;/font&gt;" style="text;html=1;points=[];align=left;verticalAlign=top;spacingTop=-4;fontSize=15;fontFamily=Verdana" parent="gAkNegjKsEfV6vPwp3o9-26" vertex="1">
          <mxGeometry x="760" y="580" width="190" height="70" as="geometry" />
        </mxCell>
        <mxCell id="gAkNegjKsEfV6vPwp3o9-31" value="&lt;font style=&quot;font-size: 20px;&quot;&gt;-tier1&lt;br&gt;-tier2&lt;br&gt;-tier3&lt;br&gt;-tier4&lt;br&gt;-tier5&lt;br&gt;&lt;/font&gt;" style="text;html=1;points=[];align=left;verticalAlign=top;spacingTop=-4;fontSize=12;fontFamily=Verdana;whiteSpace=wrap;" parent="gAkNegjKsEfV6vPwp3o9-26" vertex="1">
          <mxGeometry x="765" y="635" width="240" height="70" as="geometry" />
        </mxCell>
        <mxCell id="gAkNegjKsEfV6vPwp3o9-32" value="&lt;font style=&quot;font-size: 24px;&quot;&gt;Wie wir zum Konzept kamen&lt;/font&gt;" style="text;html=1;points=[];align=left;verticalAlign=top;spacingTop=-4;fontSize=15;fontFamily=Verdana" parent="gAkNegjKsEfV6vPwp3o9-26" vertex="1">
          <mxGeometry x="50" y="520" width="170" height="30" as="geometry" />
        </mxCell>
        <mxCell id="gAkNegjKsEfV6vPwp3o9-33" value="ErklÃ¤rungstext dazuErklÃ¤rungstext dazuErklÃ¤rungstext dazuErklÃ¤rungstext dazuErklÃ¤rungstext dazuErklÃ¤rungstext dazuErklÃ¤rungstext dazuErklÃ¤rungstext dazuErklÃ¤rungstext dazuErklÃ¤rungstext dazuErklÃ¤rungstext dazuErklÃ¤rungstext dazuErklÃ¤rungstext dazuErklÃ¤rungstext dazuErklÃ¤rungstext dazuErklÃ¤rungstext dazuErklÃ¤rungstext dazuErklÃ¤rungstext dazuErklÃ¤rungstext dazuErklÃ¤rungstext dazuErklÃ¤rungstext dazuErklÃ¤rungstext dazuErklÃ¤rungstext dazuErklÃ¤rungstext dazuErklÃ¤rungstext dazu" style="text;html=1;points=[];align=left;verticalAlign=top;spacingTop=-4;fontSize=12;fontFamily=Verdana;whiteSpace=wrap;" parent="gAkNegjKsEfV6vPwp3o9-26" vertex="1">
          <mxGeometry x="60" y="600" width="350" height="140" as="geometry" />
        </mxCell>
        <mxCell id="gAkNegjKsEfV6vPwp3o9-34" value="&lt;font style=&quot;font-size: 50px;&quot;&gt;Ãffnungszeiten&lt;/font&gt;" style="text;html=1;points=[];align=left;verticalAlign=top;spacingTop=-4;fontSize=15;fontFamily=Verdana" parent="gAkNegjKsEfV6vPwp3o9-26" vertex="1">
          <mxGeometry x="295" y="270" width="420" height="100" as="geometry" />
        </mxCell>
        <mxCell id="gAkNegjKsEfV6vPwp3o9-38" value="" style="verticalLabelPosition=bottom;shadow=0;dashed=0;align=center;html=1;verticalAlign=top;strokeWidth=1;shape=mxgraph.mockup.markup.line;strokeColor=#999999;rounded=0;labelBackgroundColor=none;fillColor=#ffffff;fontFamily=Verdana;fontSize=12;fontColor=#000000;" parent="gAkNegjKsEfV6vPwp3o9-26" vertex="1">
          <mxGeometry y="400" width="1050" height="20" as="geometry" />
        </mxCell>
        <mxCell id="gAkNegjKsEfV6vPwp3o9-97" value="" style="rounded=0;whiteSpace=wrap;html=1;fillColor=#000000;" parent="gAkNegjKsEfV6vPwp3o9-26" vertex="1">
          <mxGeometry y="110" width="1050" height="100" as="geometry" />
        </mxCell>
        <mxCell id="gAkNegjKsEfV6vPwp3o9-98" value="&lt;font style=&quot;font-size: 30px;&quot; color=&quot;#ffffff&quot;&gt;Startseite&lt;/font&gt;" style="text;html=1;strokeColor=none;fillColor=none;align=center;verticalAlign=middle;whiteSpace=wrap;rounded=0;" parent="gAkNegjKsEfV6vPwp3o9-26" vertex="1">
          <mxGeometry x="5" y="125" width="185" height="70" as="geometry" />
        </mxCell>
        <mxCell id="gAkNegjKsEfV6vPwp3o9-99" value="&lt;font style=&quot;font-size: 30px;&quot; color=&quot;#ffffff&quot;&gt;Tiere&lt;/font&gt;" style="text;html=1;strokeColor=none;fillColor=none;align=center;verticalAlign=middle;whiteSpace=wrap;rounded=0;" parent="gAkNegjKsEfV6vPwp3o9-26" vertex="1">
          <mxGeometry x="205" y="125" width="185" height="70" as="geometry" />
        </mxCell>
        <mxCell id="gAkNegjKsEfV6vPwp3o9-100" value="&lt;font style=&quot;font-size: 30px;&quot; color=&quot;#ffffff&quot;&gt;Informationen&lt;/font&gt;" style="text;html=1;strokeColor=none;fillColor=none;align=center;verticalAlign=middle;whiteSpace=wrap;rounded=0;" parent="gAkNegjKsEfV6vPwp3o9-26" vertex="1">
          <mxGeometry x="425" y="125" width="185" height="70" as="geometry" />
        </mxCell>
        <mxCell id="gAkNegjKsEfV6vPwp3o9-101" value="&lt;font style=&quot;font-size: 30px;&quot; color=&quot;#ffffff&quot;&gt;Kontakt&lt;/font&gt;" style="text;html=1;strokeColor=none;fillColor=none;align=center;verticalAlign=middle;whiteSpace=wrap;rounded=0;" parent="gAkNegjKsEfV6vPwp3o9-26" vertex="1">
          <mxGeometry x="845" y="120" width="185" height="75" as="geometry" />
        </mxCell>
        <mxCell id="gAkNegjKsEfV6vPwp3o9-76" value="" style="verticalLabelPosition=bottom;shadow=0;dashed=0;align=center;html=1;verticalAlign=top;strokeWidth=1;shape=mxgraph.mockup.graphics.simpleIcon;strokeColor=#999999;fillColor=#ffffff;rounded=0;labelBackgroundColor=none;fontFamily=Verdana;fontSize=12;fontColor=#000000;opacity=30;" parent="gAkNegjKsEfV6vPwp3o9-26" vertex="1">
          <mxGeometry y="210" width="1050" height="610" as="geometry" />
        </mxCell>
        <mxCell id="gAkNegjKsEfV6vPwp3o9-51" value="" style="strokeWidth=1;shadow=0;dashed=0;align=center;html=1;shape=mxgraph.mockup.containers.browserWindow;rSize=0;strokeColor=#666666;mainText=,;recursiveResize=0;rounded=0;labelBackgroundColor=none;fontFamily=Verdana;fontSize=12" parent="1" vertex="1">
          <mxGeometry x="1200" y="980" width="1070" height="820" as="geometry" />
        </mxCell>
        <mxCell id="gAkNegjKsEfV6vPwp3o9-52" value="Page 1" style="strokeWidth=1;shadow=0;dashed=0;align=center;html=1;shape=mxgraph.mockup.containers.anchor;fontSize=17;fontColor=#666666;align=left;" parent="gAkNegjKsEfV6vPwp3o9-51" vertex="1">
          <mxGeometry x="60" y="12" width="110" height="26" as="geometry" />
        </mxCell>
        <mxCell id="gAkNegjKsEfV6vPwp3o9-53" value="https://www.wÃ¼stenzoo.ch/informationen.html" style="strokeWidth=1;shadow=0;dashed=0;align=center;html=1;shape=mxgraph.mockup.containers.anchor;rSize=0;fontSize=17;fontColor=#666666;align=left;" parent="gAkNegjKsEfV6vPwp3o9-51" vertex="1">
          <mxGeometry x="130" y="60" width="250" height="26" as="geometry" />
        </mxCell>
        <mxCell id="gAkNegjKsEfV6vPwp3o9-54" value="Informationen Ã¼ber uns" style="text;html=1;points=[];align=left;verticalAlign=top;spacingTop=-4;fontSize=30;fontFamily=Verdana" parent="gAkNegjKsEfV6vPwp3o9-51" vertex="1">
          <mxGeometry x="30" y="240" width="370" height="50" as="geometry" />
        </mxCell>
        <mxCell id="gAkNegjKsEfV6vPwp3o9-55" value="Wieso Sie zu uns kommen sollten &lt;br&gt;und nicht zu einem normalen Zoo" style="text;html=1;points=[];align=left;verticalAlign=top;spacingTop=-4;fontSize=15;fontFamily=Verdana" parent="gAkNegjKsEfV6vPwp3o9-51" vertex="1">
          <mxGeometry x="637.5" y="320" width="290" height="50" as="geometry" />
        </mxCell>
        <mxCell id="gAkNegjKsEfV6vPwp3o9-56" value="TextTextTextTextTextTextTextTextTextTextTextTextText&lt;br style=&quot;border-color: var(--border-color);&quot;&gt;TextTextTextTextTextTextTextTextTextTextTextTextText&lt;br style=&quot;border-color: var(--border-color);&quot;&gt;TextTextTextTextTextTextTextTextTextTextTextTextText&lt;br style=&quot;border-color: var(--border-color);&quot;&gt;TextTextTextTextTextTextTextTextTextTextTextTextText&lt;br style=&quot;border-color: var(--border-color);&quot;&gt;TextTextTextTextTextTextTextTextTextTextTextTextText&lt;br style=&quot;border-color: var(--border-color);&quot;&gt;TextTextTextTextTextTextTextTextTextTextTextTextText" style="text;html=1;points=[];align=left;verticalAlign=top;spacingTop=-4;fontSize=12;fontFamily=Verdana;whiteSpace=wrap;" parent="gAkNegjKsEfV6vPwp3o9-51" vertex="1">
          <mxGeometry x="617.5" y="410" width="330" height="90" as="geometry" />
        </mxCell>
        <mxCell id="gAkNegjKsEfV6vPwp3o9-64" value="Seit wann es uns gibt&lt;br&gt;&amp;nbsp;" style="text;html=1;points=[];align=left;verticalAlign=top;spacingTop=-4;fontSize=15;fontFamily=Verdana" parent="gAkNegjKsEfV6vPwp3o9-51" vertex="1">
          <mxGeometry x="50" y="340" width="170" height="30" as="geometry" />
        </mxCell>
        <mxCell id="gAkNegjKsEfV6vPwp3o9-65" value="TextTextTextTextTextTextTextTextText&lt;br&gt;TextTextTextTextTextTextTextTextText&lt;br&gt;TextTextTextTextTextTextTextTextText&lt;br&gt;TextTextTextTextTextTextTextTextText&lt;br&gt;TextTextTextTextTextTextTextTextText&lt;br&gt;t" style="text;spacingTop=-5;whiteSpace=wrap;html=1;align=left;fontSize=12;fontFamily=Helvetica;fillColor=none;strokeColor=none;rounded=0;shadow=1;labelBackgroundColor=none;" parent="gAkNegjKsEfV6vPwp3o9-51" vertex="1">
          <mxGeometry x="50" y="430" width="210" height="80" as="geometry" />
        </mxCell>
        <mxCell id="gAkNegjKsEfV6vPwp3o9-68" value="Wer uns gegrÃ¼ndet hat" style="text;html=1;points=[];align=left;verticalAlign=top;spacingTop=-4;fontSize=12;fontFamily=Verdana;whiteSpace=wrap;" parent="gAkNegjKsEfV6vPwp3o9-51" vertex="1">
          <mxGeometry x="40" y="590" width="240" height="40" as="geometry" />
        </mxCell>
        <mxCell id="NXgxYOmkb9f06gpOWi1V-6" value="" style="rounded=0;whiteSpace=wrap;html=1;fillColor=#000000;" vertex="1" parent="gAkNegjKsEfV6vPwp3o9-51">
          <mxGeometry y="110" width="1070" height="100" as="geometry" />
        </mxCell>
        <mxCell id="NXgxYOmkb9f06gpOWi1V-11" value="&lt;font style=&quot;font-size: 30px;&quot; color=&quot;#ffffff&quot;&gt;Startseite&lt;/font&gt;" style="text;html=1;strokeColor=none;fillColor=none;align=center;verticalAlign=middle;whiteSpace=wrap;rounded=0;" vertex="1" parent="gAkNegjKsEfV6vPwp3o9-51">
          <mxGeometry x="12.5" y="125" width="185" height="70" as="geometry" />
        </mxCell>
        <mxCell id="NXgxYOmkb9f06gpOWi1V-12" value="&lt;font style=&quot;font-size: 30px;&quot; color=&quot;#ffffff&quot;&gt;Tiere&lt;/font&gt;" style="text;html=1;strokeColor=none;fillColor=none;align=center;verticalAlign=middle;whiteSpace=wrap;rounded=0;" vertex="1" parent="gAkNegjKsEfV6vPwp3o9-51">
          <mxGeometry x="212.5" y="125" width="185" height="70" as="geometry" />
        </mxCell>
        <mxCell id="NXgxYOmkb9f06gpOWi1V-13" value="&lt;font style=&quot;font-size: 30px;&quot; color=&quot;#ffffff&quot;&gt;Informationen&lt;/font&gt;" style="text;html=1;strokeColor=none;fillColor=none;align=center;verticalAlign=middle;whiteSpace=wrap;rounded=0;" vertex="1" parent="gAkNegjKsEfV6vPwp3o9-51">
          <mxGeometry x="432.5" y="125" width="185" height="70" as="geometry" />
        </mxCell>
        <mxCell id="NXgxYOmkb9f06gpOWi1V-14" value="&lt;font color=&quot;#ffffff&quot;&gt;&lt;span style=&quot;font-size: 30px;&quot;&gt;Kontakt&lt;/span&gt;&lt;/font&gt;" style="text;html=1;strokeColor=none;fillColor=none;align=center;verticalAlign=middle;whiteSpace=wrap;rounded=0;" vertex="1" parent="gAkNegjKsEfV6vPwp3o9-51">
          <mxGeometry x="852.5" y="120" width="185" height="75" as="geometry" />
        </mxCell>
        <mxCell id="NXgxYOmkb9f06gpOWi1V-15" value="TextTextTextTextTextTextTextTextText&lt;br&gt;TextTextTextTextTextTextTextTextText&lt;br&gt;TextTextTextTextTextTextTextTextText&lt;br&gt;TextTextTextTextTextTextTextTextText&lt;br&gt;TextTextTextTextTextTextTextTextText&lt;br&gt;t" style="text;spacingTop=-5;whiteSpace=wrap;html=1;align=left;fontSize=12;fontFamily=Helvetica;fillColor=none;strokeColor=none;rounded=0;shadow=1;labelBackgroundColor=none;" vertex="1" parent="gAkNegjKsEfV6vPwp3o9-51">
          <mxGeometry x="40" y="670" width="210" height="80" as="geometry" />
        </mxCell>
        <mxCell id="NXgxYOmkb9f06gpOWi1V-17" value="Kontakt unseres GrÃ¼nders" style="text;html=1;points=[];align=left;verticalAlign=top;spacingTop=-4;fontSize=12;fontFamily=Verdana;whiteSpace=wrap;" vertex="1" parent="gAkNegjKsEfV6vPwp3o9-51">
          <mxGeometry x="700" y="595" width="180" height="30" as="geometry" />
        </mxCell>
        <mxCell id="NXgxYOmkb9f06gpOWi1V-18" value="KontaktdatenKontaktdatenKontaktdatenKontaktdaten&lt;br&gt;KontaktdatenKontaktdatenKontaktdatenKontaktdaten&lt;br&gt;KontaktdatenKontaktdatenKontaktdatenKontaktdaten&lt;br&gt;KontaktdatenKontaktdatenKontaktdatenKontaktdaten" style="text;html=1;points=[];align=left;verticalAlign=top;spacingTop=-4;fontSize=12;fontFamily=Verdana;whiteSpace=wrap;" vertex="1" parent="gAkNegjKsEfV6vPwp3o9-51">
          <mxGeometry x="625" y="680" width="330" height="90" as="geometry" />
        </mxCell>
        <mxCell id="gAkNegjKsEfV6vPwp3o9-111" value="&lt;font style=&quot;font-size: 30px;&quot; color=&quot;#ffffff&quot;&gt;Startseite&lt;/font&gt;" style="text;html=1;strokeColor=none;fillColor=none;align=center;verticalAlign=middle;whiteSpace=wrap;rounded=0;" parent="1" vertex="1">
          <mxGeometry x="30" y="1925" width="185" height="70" as="geometry" />
        </mxCell>
        <mxCell id="gAkNegjKsEfV6vPwp3o9-112" value="&lt;font style=&quot;font-size: 30px;&quot; color=&quot;#ffffff&quot;&gt;Tiere&lt;/font&gt;" style="text;html=1;strokeColor=none;fillColor=none;align=center;verticalAlign=middle;whiteSpace=wrap;rounded=0;" parent="1" vertex="1">
          <mxGeometry x="230" y="1925" width="185" height="70" as="geometry" />
        </mxCell>
        <mxCell id="gAkNegjKsEfV6vPwp3o9-113" value="&lt;font style=&quot;font-size: 30px;&quot; color=&quot;#ffffff&quot;&gt;Informationen&lt;/font&gt;" style="text;html=1;strokeColor=none;fillColor=none;align=center;verticalAlign=middle;whiteSpace=wrap;rounded=0;" parent="1" vertex="1">
          <mxGeometry x="450" y="1925" width="185" height="70" as="geometry" />
        </mxCell>
      </root>
    </mxGraphModel>
  </diagram>
</mxfile>
